<svg width="95" height="48" viewBox="0 0 95 48" fill="none" xmlns="http://www.w3.org/2000/svg">
<path d="M0 4C0 1.79086 1.79086 0 4 0H71.5592C74.2578 0 76.1821 2.61738 75.3772 5.1931L62.8772 45.1931C62.3553 46.863 60.8088 48 59.0592 48H4C1.79086 48 0 46.2091 0 44V4Z" fill="#468DDF" fill-opacity="0.7"/>
<path d="M33.1328 31H30.0303L28.29 24.25C28.2256 24.0098 28.1143 23.5146 27.9561 22.7646C27.8037 22.0088 27.7158 21.502 27.6924 21.2441C27.6572 21.5605 27.5693 22.0703 27.4287 22.7734C27.2881 23.4707 27.1797 23.9688 27.1035 24.2676L25.3721 31H22.2783L19 18.1504H21.6807L23.3242 25.1641C23.6113 26.459 23.8193 27.5811 23.9482 28.5303C23.9834 28.1963 24.0625 27.6807 24.1855 26.9834C24.3145 26.2803 24.4346 25.7354 24.5459 25.3486L26.418 18.1504H28.9932L30.8652 25.3486C30.9473 25.6709 31.0498 26.1631 31.1729 26.8252C31.2959 27.4873 31.3896 28.0557 31.4541 28.5303C31.5127 28.0732 31.6064 27.5049 31.7354 26.8252C31.8643 26.1396 31.9814 25.5859 32.0869 25.1641L33.7217 18.1504H36.4023L33.1328 31ZM39.9443 26.0693C39.9443 27.042 40.1025 27.7773 40.4189 28.2754C40.7412 28.7734 41.2627 29.0225 41.9834 29.0225C42.6982 29.0225 43.2109 28.7764 43.5215 28.2842C43.8379 27.7861 43.9961 27.0479 43.9961 26.0693C43.9961 25.0967 43.8379 24.3672 43.5215 23.8809C43.2051 23.3945 42.6865 23.1514 41.9658 23.1514C41.251 23.1514 40.7354 23.3945 40.4189 23.8809C40.1025 24.3613 39.9443 25.0908 39.9443 26.0693ZM46.7383 26.0693C46.7383 27.6689 46.3164 28.9199 45.4727 29.8223C44.6289 30.7246 43.4541 31.1758 41.9482 31.1758C41.0049 31.1758 40.1729 30.9707 39.4521 30.5605C38.7314 30.1445 38.1777 29.5498 37.791 28.7764C37.4043 28.0029 37.2109 27.1006 37.2109 26.0693C37.2109 24.4639 37.6299 23.2158 38.4678 22.3252C39.3057 21.4346 40.4834 20.9893 42.001 20.9893C42.9443 20.9893 43.7764 21.1943 44.4971 21.6045C45.2178 22.0146 45.7715 22.6035 46.1582 23.3711C46.5449 24.1387 46.7383 25.0381 46.7383 26.0693ZM54.4375 20.9893C54.8008 20.9893 55.1025 21.0156 55.3428 21.0684L55.1406 23.582C54.9238 23.5234 54.6602 23.4941 54.3496 23.4941C53.4941 23.4941 52.8262 23.7139 52.3457 24.1533C51.8711 24.5928 51.6338 25.208 51.6338 25.999V31H48.9531V21.1738H50.9834L51.3789 22.8262H51.5107C51.8154 22.2754 52.2256 21.833 52.7412 21.499C53.2627 21.1592 53.8281 20.9893 54.4375 20.9893ZM59.7021 25.6562L60.8711 24.1621L63.6221 21.1738H66.6455L62.7432 25.4365L66.8828 31H63.7891L60.959 27.0186L59.8076 27.9414V31H57.127V17.3242H59.8076V23.4238L59.667 25.6562H59.7021ZM78.6162 31L75.5225 20.9189H75.4434C75.5547 22.9697 75.6104 24.3379 75.6104 25.0234V31H73.1758V18.1504H76.8848L79.9258 27.9766H79.9785L83.2041 18.1504H86.9131V31H84.373V24.918C84.373 24.6309 84.376 24.2998 84.3818 23.9248C84.3936 23.5498 84.4346 22.5537 84.5049 20.9365H84.4258L81.1123 31H78.6162ZM89.8311 18.6338C89.8311 17.7607 90.3174 17.3242 91.29 17.3242C92.2627 17.3242 92.749 17.7607 92.749 18.6338C92.749 19.0498 92.626 19.375 92.3799 19.6094C92.1396 19.8379 91.7764 19.9521 91.29 19.9521C90.3174 19.9521 89.8311 19.5127 89.8311 18.6338ZM92.626 31H89.9453V21.1738H92.626V31Z" fill="white"/>
</svg>
